<svg width="180" height="17" viewBox="0 0 180 17" fill="none" xmlns="http://www.w3.org/2000/svg">
<g clip-path="url(#clip0_547_904)">
<mask id="mask0_547_904" style="mask-type:luminance" maskUnits="userSpaceOnUse" x="0" y="0" width="180" height="17">
<path d="M179.928 0H0V17H179.928V0Z" fill="white"/>
</mask>
<g mask="url(#mask0_547_904)">
<path d="M63.2903 0H62.6243V17H63.2903V0Z" fill="black"/>
<path d="M43.5117 4.30559H49.8367C49.9832 4.30559 50.1252 4.28814 50.2628 4.24016C50.2806 4.2358 50.2939 4.22707 50.3116 4.22271C50.7955 4.02204 51.1727 3.62943 51.3769 3.15394L51.4657 2.94454C51.5189 2.81368 51.5678 2.6828 51.6078 2.54757C51.6255 2.48214 51.6388 2.42543 51.6388 2.39925C51.6388 2.23785 51.5234 2.14624 51.2926 2.14624H41.2347C40.2271 2.14624 39.3616 2.2204 38.7135 2.47778C38.07 2.73079 37.6705 3.04488 37.2222 3.48984C36.6407 4.0613 36.3389 4.75491 36.2191 5.33073C35.9927 6.43005 36.3611 7.74744 38.07 8.67665L44.6968 12.1142C45.1895 12.3803 44.9986 12.7031 44.5947 12.7031H37.3509C37.2044 12.7031 37.0624 12.7205 36.9248 12.7685C36.9071 12.7729 36.8937 12.7816 36.876 12.786C36.6407 12.8819 36.4321 13.0259 36.259 13.2004L31.7715 8.79443C31.6473 8.6723 31.6473 8.476 31.7715 8.35381L37.4929 2.67844C37.6927 2.48214 37.5506 2.14624 37.2666 2.14624H30.8528C30.7684 2.14624 30.6885 2.18114 30.6308 2.23785L28.0653 4.72001C27.941 4.8378 27.7413 4.8378 27.6214 4.72001L25.0959 2.23785C25.0382 2.18114 24.9582 2.14624 24.8739 2.14624H18.4513C18.1716 2.14624 18.0296 2.48214 18.2249 2.67844L23.8663 8.35381C23.9862 8.476 23.9862 8.6723 23.8663 8.79443L21.7536 10.8404L13.986 2.50395C13.7907 2.27711 13.5244 2.1506 13.2447 2.1506H10.8124C10.5328 2.1506 10.2665 2.28147 10.0667 2.50831L0.110881 14.0816C-0.128804 14.3608 0.0398632 14.8494 0.386076 14.8494H2.05944C2.2858 14.8494 2.5033 14.7403 2.66309 14.5527L3.71948 13.3094C3.84376 13.1655 4.01243 13.0826 4.18997 13.0826H16.4272C16.6092 13.0826 16.7824 13.1699 16.9066 13.3225L17.9142 14.5571C18.074 14.7534 18.2959 14.8494 18.5267 14.8494H24.5011C24.5011 14.8494 24.5055 14.8494 24.51 14.8494H25.087C25.1713 14.8494 25.2512 14.8144 25.3134 14.7577L27.5593 12.5286C27.6836 12.4065 27.8878 12.4065 28.012 12.5286L30.2269 14.7577C30.2846 14.8188 30.3689 14.8494 30.4533 14.8494H35.8951H47.0448C49.8589 14.8057 50.9774 13.2397 51.3547 12.2189C51.7187 11.233 51.5367 10.3954 50.9375 9.64071C50.5292 9.12163 49.7036 8.55016 49.1443 8.22732L43.2454 5.05155C42.9347 4.84652 42.9347 4.30559 43.5161 4.30559H43.5117ZM14.3189 10.7226H6.26727C6.16073 10.7226 6.10743 10.5786 6.17846 10.4913L10.2087 5.75823C10.2575 5.70155 10.333 5.70155 10.3819 5.75823L14.4032 10.487C14.4787 10.5743 14.4254 10.7226 14.3145 10.7226H14.3189Z" fill="black"/>
<path d="M87.5914 5.90223H86.1892C85.3546 4.40159 83.7746 3.37208 81.6259 3.37208C78.5546 3.37208 76.4238 5.60558 76.4238 8.50217C76.4238 11.3988 78.5546 13.6323 81.6259 13.6323C83.7746 13.6323 85.3546 12.6028 86.1892 11.1021H87.5914C86.6859 13.3007 84.4843 14.8537 81.6259 14.8537C77.7913 14.8537 75.0038 12.0968 75.0038 8.50217C75.0038 4.90763 77.7913 2.15063 81.6259 2.15063C84.4843 2.15063 86.6859 3.70362 87.5914 5.90223Z" fill="black" stroke="black" stroke-width="1.23172" stroke-miterlimit="10"/>
<path d="M90.5746 2.39502H91.9946V7.8043H99.3276V2.39502H100.748V14.6096H99.3276V9.09555H91.9946V14.6096H90.5746V2.39502Z" fill="black" stroke="black" stroke-width="1.23172" stroke-miterlimit="10"/>
<path d="M104.476 2.39502H112.324V3.61647H105.896V7.78687H112.164V9.00832H105.896V13.3881H112.395V14.6096H104.476V2.39502Z" fill="black" stroke="black" stroke-width="1.23172" stroke-miterlimit="10"/>
<path d="M127.202 5.90225H125.799C124.965 4.4016 123.385 3.37209 121.236 3.37209C118.165 3.37209 116.035 5.6056 116.035 8.50219C116.035 11.3988 118.165 13.6323 121.236 13.6323C123.385 13.6323 124.965 12.6028 125.799 11.1021H127.202C126.296 13.3008 124.095 14.8538 121.236 14.8538C117.402 14.8538 114.614 12.0967 114.614 8.50219C114.614 4.90763 117.402 2.15063 121.236 2.15063C124.095 2.15063 126.296 3.70363 127.202 5.90225Z" fill="black" stroke="black" stroke-width="1.23172" stroke-miterlimit="10"/>
<path d="M130.184 2.39502H131.605V8.27546L137.783 2.39502H139.488L133.238 8.3976L139.754 14.6096H137.997L131.605 8.50231V14.6096H130.184V2.39502Z" fill="black" stroke="black" stroke-width="1.23172" stroke-miterlimit="10"/>
<path d="M147.424 2.15063C151.241 2.15063 154.029 4.90763 154.029 8.50219C154.029 12.0967 151.241 14.8538 147.424 14.8538C143.607 14.8538 140.819 12.1142 140.819 8.50219C140.819 4.89018 143.625 2.15063 147.424 2.15063ZM142.24 8.50219C142.24 11.3465 144.352 13.6323 147.424 13.6323C150.496 13.6323 152.609 11.3465 152.609 8.50219C152.609 5.65793 150.514 3.37209 147.424 3.37209C144.335 3.37209 142.24 5.64051 142.24 8.50219Z" fill="black" stroke="black" stroke-width="1.23172" stroke-miterlimit="10"/>
<path d="M167.345 10.0029C167.345 12.8123 165.214 14.8538 162.178 14.8538C159.142 14.8538 157.011 12.8123 157.011 10.0029V2.39502H158.432V10.0553C158.432 12.2016 159.959 13.6324 162.178 13.6324C164.397 13.6324 165.924 12.2016 165.924 10.0553V2.39502H167.345V10.0029Z" fill="black" stroke="black" stroke-width="1.23172" stroke-miterlimit="10"/>
<path d="M179.595 3.59902H175.53V14.6096H174.109V3.59902H170.043V2.39502H179.595V3.59902Z" fill="black" stroke="black" stroke-width="1.23172" stroke-miterlimit="10"/>
</g>
</g>
<defs>
<clipPath id="clip0_547_904">
<rect width="180" height="17" fill="white"/>
</clipPath>
</defs>
</svg>
